<svg viewBox="0 0 568 555" fill="none" xmlns="http://www.w3.org/2000/svg">
<path fill-rule="evenodd" clip-rule="evenodd" d="M284 555C440.849 555 568 430.759 568 277.5C568 124.241 440.849 0 284 0C127.151 0 0 124.241 0 277.5C0 430.759 127.151 555 284 555ZM284 534C424.833 534 539 419.161 539 277.5C539 135.839 424.833 21 284 21C143.167 21 29 135.839 29 277.5C29 419.161 143.167 534 284 534Z" fill="#4D4D4D"/>
<g clip-path="url(#clip0_22_11)">
<path d="M368.33 136.882C365.923 140.56 367.455 145.438 371.751 147.779C376.049 150.12 381.483 149.036 383.889 145.358L417.305 94.2925C419.712 90.6146 418.179 85.7357 413.883 83.3952C409.585 81.0545 404.151 82.1386 401.745 85.8166L368.33 136.882Z" fill="#4D4D4D"/>
<path fill-rule="evenodd" clip-rule="evenodd" d="M174.478 209.545L174.501 209.583C163.542 211.21 152.61 214.547 142.194 219.714L121.752 229.853C75.2671 252.911 56.6739 303.658 80.1707 343.111C95.0757 368.138 123.371 382.666 153.937 384.059C154.563 387.055 155.699 389.997 157.378 392.792L196.493 457.916C205.732 473.3 227.919 478.423 246.048 469.36C264.176 460.296 271.382 440.477 262.141 425.093L225.301 363.755L227.369 362.729C237.793 357.558 246.815 350.995 254.274 343.479L254.668 344.142L412.077 351.123L353.211 252.319C363.78 245.991 372.372 237.885 377.576 229.214C383.838 218.78 384.682 208.384 379.922 200.312C375.162 192.241 365.189 187.155 352.195 186.173C341.305 185.351 329.04 187.468 317.339 192.11L254.461 86.5723L174.478 209.545ZM171.45 221.6C158.541 222.301 145.441 225.587 133.135 231.685L123.771 236.325C81.7044 257.172 64.8484 303.001 86.1217 338.688C99.8632 361.74 126.153 374.922 154.384 375.748L201.011 453.38C208.088 465.164 225.081 469.088 238.966 462.146C252.852 455.204 258.37 440.024 251.294 428.241L210.701 360.656C222.661 354.64 232.558 346.595 240.09 337.342L171.45 221.6ZM376.934 336.446L390.452 336.867L252.479 104.217L245.083 115.223L376.934 336.446ZM370.285 336.24L252.215 332.562L180.816 212.168L179.628 212.616L241.964 119.863L370.285 336.24ZM365.609 227.57C360.919 234.945 353.075 241.874 343.53 247.136L315.824 200.642C325.964 196.208 336.714 194.017 346.115 194.514C356.512 195.063 364.405 198.855 368.061 205.054C371.717 211.253 370.835 219.352 365.609 227.57Z" fill="#4D4D4D"/>
<path d="M401.309 188.194C398.851 184.217 400.646 179.044 405.32 176.639L459.983 148.511C464.656 146.106 470.438 147.381 472.896 151.358C475.354 155.335 473.559 160.508 468.885 162.913L414.223 191.041C409.549 193.446 403.768 192.172 401.309 188.194Z" fill="#4D4D4D"/>
<path d="M425.676 230.083C419.957 229.837 415.13 233.335 414.895 237.896C414.66 242.457 419.105 246.353 424.824 246.6L486.21 249.237C491.928 249.482 496.756 245.985 496.991 241.424C497.226 236.863 492.781 232.967 487.062 232.721L425.676 230.083Z" fill="#4D4D4D"/>
<path d="M187.124 401.752C183.753 395.058 186.699 387.022 193.704 383.801L215.909 373.592C222.915 370.371 231.326 373.187 234.696 379.881C238.067 386.574 235.121 394.612 228.116 397.833L205.911 408.041C198.905 411.262 190.493 408.446 187.124 401.752Z" fill="#4D4D4D"/>
</g>
<defs>
<clipPath id="clip0_22_11">
<rect width="427" height="408" fill="white" transform="translate(70 74)"/>
</clipPath>
</defs>
</svg>
