<svg width="130" height="55" viewBox="0 0 130 55" fill="none" xmlns="http://www.w3.org/2000/svg">
<path fill-rule="evenodd" clip-rule="evenodd" d="M6.51085 5.14778C2.91501 5.14778 0 6.96732 0 9.21182V40.3695C0 42.614 2.91501 44.4335 6.51085 44.4335H123.489C127.085 44.4335 130 42.614 130 40.3695V9.21182C130 6.96732 127.085 5.14778 123.489 5.14778H6.51085ZM10.6344 7.99261C7.03855 7.99261 4.12354 9.81214 4.12354 12.0567V37.3892C4.12354 39.6337 7.03854 41.4532 10.6344 41.4532H119.149C122.744 41.4532 125.659 39.6337 125.659 37.3892V12.0566C125.659 9.81214 122.744 7.99261 119.149 7.99261H10.6344Z" fill="#4D4D4D"/>
<path d="M0 47.2783H130V49.7167H0V47.2783Z" fill="#4D4D4D"/>
<path d="M54.9082 44.4335H74.8748V55H54.9082V44.4335Z" fill="#4D4D4D"/>
<path d="M29.9499 2.57389C29.9499 1.89125 28.7152 1.23657 26.5173 0.753875C24.3195 0.271177 21.3386 5.15378e-08 18.2304 0C15.1222 -5.15377e-08 12.1413 0.271177 9.94342 0.753875C7.74559 1.23657 6.51085 1.89125 6.51085 2.57389L29.9499 2.57389Z" fill="#4D4D4D"/>
<path d="M76.611 2.57389C76.611 1.89125 75.3763 1.23657 73.1784 0.753875C70.9806 0.271177 67.9997 5.15378e-08 64.8915 0C61.7833 -5.15377e-08 58.8024 0.271177 56.6045 0.753875C54.4067 1.23657 53.172 1.89125 53.172 2.57389L76.611 2.57389Z" fill="#4D4D4D"/>
<path d="M123.272 2.57389C123.272 1.89125 122.037 1.23657 119.84 0.753875C117.642 0.271177 114.661 5.15378e-08 111.553 0C108.444 -5.15377e-08 105.463 0.271177 103.266 0.753875C101.068 1.23657 99.8331 1.89125 99.8331 2.57389L123.272 2.57389Z" fill="#4D4D4D"/>
<path d="M20.392 25H18.8068C18.713 24.544 18.549 24.1435 18.3146 23.7983C18.0845 23.4531 17.8032 23.1634 17.4709 22.929C17.1427 22.6903 16.7784 22.5114 16.3778 22.392C15.9773 22.2727 15.5596 22.2131 15.125 22.2131C14.3324 22.2131 13.6143 22.4134 12.9709 22.8139C12.3317 23.2145 11.8224 23.8047 11.4432 24.5845C11.0682 25.3643 10.8807 26.321 10.8807 27.4545C10.8807 28.5881 11.0682 29.5447 11.4432 30.3246C11.8224 31.1044 12.3317 31.6946 12.9709 32.0952C13.6143 32.4957 14.3324 32.696 15.125 32.696C15.5596 32.696 15.9773 32.6364 16.3778 32.517C16.7784 32.3977 17.1427 32.2209 17.4709 31.9865C17.8032 31.7479 18.0845 31.456 18.3146 31.1108C18.549 30.7614 18.713 30.3608 18.8068 29.9091H20.392C20.2727 30.5781 20.0554 31.1768 19.74 31.7053C19.4247 32.2337 19.0326 32.6832 18.5639 33.054C18.0951 33.4205 17.5689 33.6996 16.9851 33.8913C16.4055 34.0831 15.7855 34.179 15.125 34.179C14.0085 34.179 13.0156 33.9062 12.1463 33.3608C11.277 32.8153 10.593 32.0398 10.0944 31.0341C9.59586 30.0284 9.34657 28.8352 9.34657 27.4545C9.34657 26.0739 9.59586 24.8807 10.0944 23.875C10.593 22.8693 11.277 22.0938 12.1463 21.5483C13.0156 21.0028 14.0085 20.7301 15.125 20.7301C15.7855 20.7301 16.4055 20.826 16.9851 21.0178C17.5689 21.2095 18.0951 21.4908 18.5639 21.8615C19.0326 22.228 19.4247 22.6754 19.74 23.2038C20.0554 23.728 20.2727 24.3267 20.392 25ZM22.7491 34V24.1818H24.2065V25.6648H24.3087C24.4877 25.179 24.8116 24.7848 25.2803 24.4822C25.7491 24.1797 26.2775 24.0284 26.8656 24.0284C26.9764 24.0284 27.1149 24.0305 27.2811 24.0348C27.4472 24.0391 27.573 24.0455 27.6582 24.054V25.5881C27.607 25.5753 27.4899 25.5561 27.3066 25.5305C27.1276 25.5007 26.938 25.4858 26.7377 25.4858C26.2605 25.4858 25.8343 25.5859 25.4593 25.7862C25.0886 25.9822 24.7945 26.255 24.5772 26.6044C24.3641 26.9496 24.2576 27.3437 24.2576 27.7869V34H22.7491ZM32.3356 34.2301C31.7134 34.2301 31.1488 34.1129 30.6417 33.8786C30.1346 33.6399 29.7319 33.2969 29.4336 32.8494C29.1353 32.3977 28.9861 31.8523 28.9861 31.2131C28.9861 30.6506 29.0969 30.1946 29.3185 29.8452C29.5401 29.4915 29.8363 29.2145 30.207 29.0142C30.5777 28.8139 30.9868 28.6648 31.4343 28.5668C31.886 28.4645 32.3398 28.3835 32.7958 28.3239C33.3924 28.2472 33.876 28.1896 34.2468 28.1513C34.6218 28.1087 34.8945 28.0384 35.065 27.9403C35.2397 27.8423 35.327 27.6719 35.327 27.429V27.3778C35.327 26.7472 35.1545 26.2571 34.8093 25.9077C34.4684 25.5582 33.9506 25.3835 33.256 25.3835C32.5358 25.3835 31.9712 25.5412 31.5621 25.8565C31.153 26.1719 30.8654 26.5085 30.6992 26.8665L29.2674 26.3551C29.5231 25.7585 29.864 25.294 30.2901 24.9616C30.7205 24.625 31.1893 24.3906 31.6964 24.2585C32.2077 24.1222 32.7106 24.054 33.2049 24.054C33.5202 24.054 33.8824 24.0923 34.2915 24.169C34.7049 24.2415 35.1033 24.3928 35.4868 24.6229C35.8746 24.853 36.1964 25.2003 36.452 25.6648C36.7077 26.1293 36.8356 26.7514 36.8356 27.5312V34H35.327V32.6705H35.2503C35.1481 32.8835 34.9776 33.1115 34.739 33.3544C34.5003 33.5973 34.1829 33.804 33.7866 33.9744C33.3902 34.1449 32.9066 34.2301 32.3356 34.2301ZM32.5657 32.875C33.1623 32.875 33.6651 32.7578 34.0742 32.5234C34.4875 32.2891 34.7986 31.9865 35.0074 31.6158C35.2205 31.245 35.327 30.8551 35.327 30.446V29.0653C35.2631 29.142 35.1225 29.2124 34.9052 29.2763C34.6921 29.3359 34.4449 29.3892 34.1637 29.4361C33.8867 29.4787 33.6161 29.517 33.3519 29.5511C33.092 29.581 32.881 29.6065 32.7191 29.6278C32.327 29.679 31.9606 29.7621 31.6197 29.8771C31.283 29.9879 31.0103 30.1562 30.8015 30.3821C30.5969 30.6037 30.4947 30.9062 30.4947 31.2898C30.4947 31.8139 30.6885 32.2102 31.0763 32.4787C31.4684 32.7429 31.9648 32.875 32.5657 32.875ZM39.5889 34V24.1818H41.0975V34H39.5889ZM40.356 22.5455C40.0619 22.5455 39.8084 22.4453 39.5953 22.245C39.3865 22.0447 39.2821 21.804 39.2821 21.5227C39.2821 21.2415 39.3865 21.0007 39.5953 20.8004C39.8084 20.6001 40.0619 20.5 40.356 20.5C40.65 20.5 40.9014 20.6001 41.1102 20.8004C41.3233 21.0007 41.4298 21.2415 41.4298 21.5227C41.4298 21.804 41.3233 22.0447 41.1102 22.245C40.9014 22.4453 40.65 22.5455 40.356 22.5455ZM47.8235 37.8864C47.0948 37.8864 46.4684 37.7926 45.9442 37.6051C45.4201 37.4219 44.9833 37.179 44.6339 36.8764C44.2887 36.5781 44.0138 36.2585 43.8093 35.9176L45.011 35.0739C45.1474 35.2528 45.3199 35.4574 45.5287 35.6875C45.7375 35.9219 46.0231 36.1243 46.3853 36.2947C46.7518 36.4695 47.2312 36.5568 47.8235 36.5568C48.6161 36.5568 49.2702 36.3651 49.7858 35.9815C50.3015 35.598 50.5593 34.9972 50.5593 34.179V32.1847H50.4314C50.3206 32.3636 50.163 32.5852 49.9584 32.8494C49.7581 33.1094 49.4684 33.3416 49.0891 33.5462C48.7141 33.7464 48.207 33.8466 47.5678 33.8466C46.7752 33.8466 46.0635 33.6591 45.4329 33.2841C44.8064 32.9091 44.31 32.3636 43.9435 31.6477C43.5813 30.9318 43.4002 30.0625 43.4002 29.0398C43.4002 28.0341 43.577 27.1584 43.9307 26.4126C44.2844 25.6626 44.7766 25.0831 45.4073 24.674C46.038 24.2607 46.7667 24.054 47.5934 24.054C48.2326 24.054 48.7397 24.1605 49.1147 24.3736C49.4939 24.5824 49.7837 24.821 49.984 25.0895C50.1885 25.3537 50.3462 25.571 50.457 25.7415H50.6104V24.1818H52.0678V34.2812C52.0678 35.125 51.876 35.8111 51.4925 36.3395C51.1133 36.8722 50.6019 37.2621 49.9584 37.5092C49.3192 37.7607 48.6076 37.8864 47.8235 37.8864ZM47.7724 32.4915C48.3775 32.4915 48.8888 32.353 49.3064 32.076C49.7241 31.799 50.0415 31.4006 50.2589 30.8807C50.4762 30.3608 50.5849 29.7386 50.5849 29.0142C50.5849 28.3068 50.4783 27.6825 50.2652 27.1413C50.0522 26.6001 49.7368 26.1761 49.3192 25.8693C48.9016 25.5625 48.386 25.4091 47.7724 25.4091C47.1331 25.4091 46.6005 25.571 46.1743 25.8949C45.7525 26.2187 45.435 26.6534 45.2219 27.1989C45.0131 27.7443 44.9087 28.3494 44.9087 29.0142C44.9087 29.696 45.0152 30.299 45.2283 30.8232C45.4456 31.343 45.7652 31.7521 46.1871 32.0504C46.6133 32.3445 47.1417 32.4915 47.7724 32.4915ZM61.7837 26.3807L60.4286 26.7642C60.3434 26.5384 60.2177 26.3189 60.0515 26.1058C59.8895 25.8885 59.6679 25.7095 59.3867 25.5689C59.1054 25.4283 58.7454 25.358 58.3064 25.358C57.7056 25.358 57.2049 25.4964 56.8043 25.7734C56.408 26.0462 56.2099 26.3935 56.2099 26.8153C56.2099 27.1903 56.3462 27.4865 56.6189 27.7038C56.8917 27.9212 57.3178 28.1023 57.8974 28.2472L59.3547 28.6051C60.2326 28.8182 60.8867 29.1442 61.3171 29.5831C61.7475 30.0178 61.9627 30.5781 61.9627 31.2642C61.9627 31.8267 61.8008 32.3295 61.4769 32.7727C61.1573 33.2159 60.7099 33.5653 60.1346 33.821C59.5593 34.0767 58.8902 34.2045 58.1275 34.2045C57.126 34.2045 56.2972 33.9872 55.641 33.5526C54.9847 33.1179 54.5692 32.483 54.3945 31.6477L55.8263 31.2898C55.9627 31.8182 56.2205 32.2145 56.5998 32.4787C56.9833 32.7429 57.484 32.875 58.1019 32.875C58.805 32.875 59.3633 32.7259 59.7766 32.4276C60.1942 32.125 60.403 31.7628 60.403 31.3409C60.403 31 60.2837 30.7145 60.0451 30.4844C59.8064 30.25 59.44 30.0753 58.9456 29.9602L57.3093 29.5767C56.4101 29.3636 55.7496 29.0334 55.3277 28.5859C54.9101 28.1342 54.7013 27.5696 54.7013 26.892C54.7013 26.3381 54.8569 25.848 55.1679 25.4219C55.4833 24.9957 55.9116 24.6612 56.4527 24.4183C56.9982 24.1754 57.6161 24.054 58.3064 24.054C59.278 24.054 60.0408 24.267 60.5948 24.6932C61.153 25.1193 61.5493 25.6818 61.7837 26.3807ZM64.9749 34H63.313L68.1198 20.9091H69.7562L74.563 34H72.9011L68.9891 22.9801H68.8869L64.9749 34ZM65.5886 28.8864H72.2874V30.2926H65.5886V28.8864ZM80.1049 34.2045C79.2867 34.2045 78.5644 33.9979 77.938 33.5845C77.3116 33.1669 76.8215 32.5788 76.4678 31.8203C76.1141 31.0575 75.9373 30.1562 75.9373 29.1165C75.9373 28.0852 76.1141 27.1903 76.4678 26.4318C76.8215 25.6733 77.3137 25.0874 77.9444 24.674C78.5751 24.2607 79.3038 24.054 80.1305 24.054C80.7697 24.054 81.2747 24.1605 81.6454 24.3736C82.0204 24.5824 82.3059 24.821 82.5019 25.0895C82.7022 25.3537 82.8578 25.571 82.9686 25.7415H83.0964V20.9091H84.6049V34H83.1475V32.4915H82.9686C82.8578 32.6705 82.7001 32.8963 82.4955 33.169C82.291 33.4375 81.9991 33.6783 81.6198 33.8913C81.2406 34.1001 80.7356 34.2045 80.1049 34.2045ZM80.3095 32.8494C80.9146 32.8494 81.4259 32.6918 81.8436 32.3764C82.2612 32.0568 82.5786 31.6158 82.796 31.0533C83.0133 30.4865 83.122 29.8324 83.122 29.0909C83.122 28.358 83.0154 27.7166 82.8024 27.1669C82.5893 26.6129 82.2739 26.1825 81.8563 25.8757C81.4387 25.5646 80.9231 25.4091 80.3095 25.4091C79.6703 25.4091 79.1376 25.5732 78.7114 25.9013C78.2896 26.2251 77.9721 26.6662 77.759 27.2244C77.5502 27.7784 77.4458 28.4006 77.4458 29.0909C77.4458 29.7898 77.5524 30.4247 77.7654 30.9957C77.9828 31.5625 78.3024 32.0142 78.7242 32.3509C79.1504 32.6832 79.6788 32.8494 80.3095 32.8494ZM87.7818 34V20.9091H89.367V32.5938H95.4522V34H87.7818ZM97.7022 34V24.1818H99.2107V34H97.7022ZM98.4693 22.5455C98.1752 22.5455 97.9217 22.4453 97.7086 22.245C97.4998 22.0447 97.3954 21.804 97.3954 21.5227C97.3954 21.2415 97.4998 21.0007 97.7086 20.8004C97.9217 20.6001 98.1752 20.5 98.4693 20.5C98.7633 20.5 99.0147 20.6001 99.2235 20.8004C99.4366 21.0007 99.5431 21.2415 99.5431 21.5227C99.5431 21.804 99.4366 22.0447 99.2235 22.245C99.0147 22.4453 98.7633 22.5455 98.4693 22.5455ZM108.928 26.3807L107.573 26.7642C107.488 26.5384 107.362 26.3189 107.196 26.1058C107.034 25.8885 106.812 25.7095 106.531 25.5689C106.25 25.4283 105.89 25.358 105.451 25.358C104.85 25.358 104.349 25.4964 103.949 25.7734C103.553 26.0462 103.354 26.3935 103.354 26.8153C103.354 27.1903 103.491 27.4865 103.763 27.7038C104.036 27.9212 104.462 28.1023 105.042 28.2472L106.499 28.6051C107.377 28.8182 108.031 29.1442 108.462 29.5831C108.892 30.0178 109.107 30.5781 109.107 31.2642C109.107 31.8267 108.945 32.3295 108.621 32.7727C108.302 33.2159 107.854 33.5653 107.279 33.821C106.704 34.0767 106.035 34.2045 105.272 34.2045C104.271 34.2045 103.442 33.9872 102.785 33.5526C102.129 33.1179 101.714 32.483 101.539 31.6477L102.971 31.2898C103.107 31.8182 103.365 32.2145 103.744 32.4787C104.128 32.7429 104.629 32.875 105.246 32.875C105.95 32.875 106.508 32.7259 106.921 32.4276C107.339 32.125 107.548 31.7628 107.548 31.3409C107.548 31 107.428 30.7145 107.19 30.4844C106.951 30.25 106.584 30.0753 106.09 29.9602L104.454 29.5767C103.555 29.3636 102.894 29.0334 102.472 28.5859C102.055 28.1342 101.846 27.5696 101.846 26.892C101.846 26.3381 102.001 25.848 102.312 25.4219C102.628 24.9957 103.056 24.6612 103.597 24.4183C104.143 24.1754 104.761 24.054 105.451 24.054C106.423 24.054 107.185 24.267 107.739 24.6932C108.298 25.1193 108.694 25.6818 108.928 26.3807ZM115.648 24.1818V25.4602H110.56V24.1818H115.648ZM112.043 21.8295H113.551V31.1875C113.551 31.6136 113.613 31.9332 113.737 32.1463C113.865 32.3551 114.026 32.4957 114.222 32.5682C114.423 32.6364 114.634 32.6705 114.855 32.6705C115.021 32.6705 115.158 32.6619 115.264 32.6449C115.371 32.6236 115.456 32.6065 115.52 32.5938L115.827 33.9489C115.725 33.9872 115.582 34.0256 115.399 34.0639C115.215 34.1065 114.983 34.1278 114.702 34.1278C114.276 34.1278 113.858 34.0362 113.449 33.853C113.044 33.6697 112.708 33.3906 112.439 33.0156C112.175 32.6406 112.043 32.1676 112.043 31.5966V21.8295Z" fill="black"/>
</svg>
