<svg width="57" height="43" viewBox="0 0 599 406" fill="none" xmlns="http://www.w3.org/2000/svg">
<path fill-rule="evenodd" clip-rule="evenodd" d="M30 38C13.4315 38 0 51.4315 0 68V298C0 314.569 13.4314 328 30 328H569C585.569 328 599 314.569 599 298V68C599 51.4315 585.569 38 569 38H30ZM49 59C32.4315 59 19 72.4315 19 89V276C19 292.569 32.4314 306 49 306H549C565.569 306 579 292.569 579 276V89C579 72.4315 565.569 59 549 59H49Z" fill="#4D4D4D"/>
<rect y="349" width="599" height="18" fill="#4D4D4D"/>
<rect x="253" y="328" width="92" height="78" fill="#4D4D4D"/>
<path d="M138 19C138 13.9609 132.311 9.12816 122.184 5.56497C112.057 2.00178 98.3217 3.80443e-07 84 0C69.6783 -3.80442e-07 55.9432 2.00178 45.8162 5.56497C35.6893 9.12816 30 13.9609 30 19L84 19H138Z" fill="#4D4D4D"/>
<path d="M353 19C353 13.9609 347.311 9.12816 337.184 5.56497C327.057 2.00178 313.322 3.80443e-07 299 0C284.678 -3.80442e-07 270.943 2.00178 260.816 5.56497C250.689 9.12816 245 13.9609 245 19L299 19H353Z" fill="#4D4D4D"/>
<path d="M568 19C568 13.9609 562.311 9.12816 552.184 5.56497C542.057 2.00178 528.322 3.80443e-07 514 0C499.678 -3.80442e-07 485.943 2.00178 475.816 5.56497C465.689 9.12816 460 13.9609 460 19L514 19H568Z" fill="#4D4D4D"/>
<path fill-rule="evenodd" clip-rule="evenodd" d="M348.25 107.198C346.344 105.895 345.664 103.179 346.732 101.132L361.556 72.7069C362.624 70.6596 365.035 70.0562 366.941 71.3591C368.847 72.6619 369.527 75.3777 368.459 77.425L353.635 105.85C352.567 107.897 350.156 108.501 348.25 107.198ZM260.742 141.601L260.732 141.58L296.215 73.1276L324.11 131.875C329.302 129.29 334.743 128.112 339.574 128.57C345.338 129.116 349.763 131.947 351.875 136.44C353.986 140.933 353.612 146.72 350.834 152.528C348.525 157.355 344.714 161.867 340.025 165.389L366.14 220.388L296.307 216.502L296.132 216.134C292.823 220.317 288.821 223.971 284.196 226.849L283.279 227.42L299.623 261.563C303.722 270.127 300.525 281.159 292.483 286.204C284.44 291.249 274.597 288.397 270.498 279.834L253.145 243.583C252.401 242.027 251.897 240.39 251.619 238.722C238.059 237.946 225.506 229.859 218.893 215.928C208.469 193.967 216.718 165.719 237.341 152.884L246.409 147.24C251.03 144.364 255.88 142.506 260.742 141.601ZM363.142 123.263C361.069 124.601 360.272 127.481 361.363 129.695C362.454 131.909 365.018 132.618 367.092 131.28L391.342 115.622C393.416 114.284 394.212 111.404 393.122 109.19C392.031 106.976 389.466 106.267 387.393 107.605L363.142 123.263ZM367.39 157.361C367.494 154.822 369.636 152.875 372.173 153.012L399.406 154.48C401.943 154.617 403.915 156.786 403.811 159.325C403.706 161.864 401.565 163.811 399.028 163.674L371.795 162.206C369.258 162.069 367.285 159.9 367.39 157.361ZM262.616 144.036L264.658 148.336C257.285 147.701 249.536 149.461 242.39 153.904L238.236 156.487C219.574 168.091 212.096 193.601 221.534 213.466C227.63 226.298 239.293 233.636 251.817 234.095L272.503 277.309C275.643 283.868 283.182 286.053 289.341 282.189C295.501 278.324 297.95 269.875 294.81 263.316L276.802 225.695C283.832 221.257 289.256 214.837 292.761 207.497L293.953 210.007L357.008 212.471L295.414 82.8048L262.616 144.036ZM334.25 163.472C339.15 160.454 343.206 156.188 345.525 151.613C347.843 147.039 348.235 142.53 346.613 139.08C344.991 135.629 341.489 133.518 336.877 133.213C332.265 132.907 326.92 134.431 322.02 137.449L328.135 150.461L334.25 163.472Z" fill="#4D4D4D"/>
<rect x="297.252" y="214.357" width="6" height="78.8825" transform="rotate(154.702 297.252 214.357)" fill="#4D4D4D"/>
<path d="M359.436 212.421L357.061 213.543L295.129 82.5117L295.619 78.0466L359.436 212.421Z" fill="#4D4D4D"/>
<path d="M352.686 216.718L350.311 217.841L290.578 91.4603L291.125 87.1181L352.686 216.718Z" fill="#4D4D4D"/>
<rect width="20.0146" height="8.9369" rx="4.46845" transform="matrix(0.865668 -0.500618 0.397473 0.917614 268 243.02)" fill="#4D4D4D"/>
<path d="M216.926 201.405C214.028 202.574 211.713 204.845 210.489 207.718C209.266 210.592 209.235 213.833 210.402 216.729C211.57 219.624 213.841 221.937 216.715 223.158C219.59 224.379 222.832 224.409 225.73 223.241L224.68 220.637C222.474 221.527 220.004 221.504 217.815 220.574C215.626 219.644 213.897 217.883 213.008 215.678C212.119 213.473 212.143 211.005 213.074 208.817C214.006 206.628 215.769 204.899 217.975 204.009L216.926 201.405Z" fill="#4D4D4D"/>
</svg>
