<svg width="40" height="40" viewBox="0 0 50 48" fill="none" xmlns="http://www.w3.org/2000/svg">
<path d="M34.9332 6.7061C34.6514 7.15682 34.8308 7.75472 35.3339 8.04157C35.8371 8.3284 36.4734 8.19555 36.7552 7.74483L40.668 1.48683C40.9499 1.03611 40.7704 0.438207 40.2673 0.151374C39.7641 -0.135472 39.1278 -0.00261751 38.846 0.44811L34.9332 6.7061Z" fill="#4D4D4D"/>
<path fill-rule="evenodd" clip-rule="evenodd" d="M12.2339 15.6109L12.2366 15.6156C10.9534 15.8149 9.67326 16.2239 8.45364 16.8571L6.06 18.0996C0.616753 20.9254 -1.56043 27.1444 1.19095 31.9793C2.93627 35.0463 6.24958 36.8267 9.8287 36.9974C9.90202 37.3646 10.035 37.7251 10.2316 38.0676L14.8118 46.0485C15.8937 47.9338 18.4917 48.5617 20.6145 47.451C22.7372 46.3402 23.581 43.9114 22.499 42.0261L18.1851 34.5092L18.4273 34.3835C19.6479 33.7498 20.7043 32.9455 21.5778 32.0244L21.6239 32.1056L40.0559 32.9612L33.1629 20.8528C34.4005 20.0773 35.4066 19.0839 36.0159 18.0213C36.7492 16.7427 36.848 15.4686 36.2906 14.4794C35.7333 13.4903 34.5654 12.867 33.0439 12.7467C31.7687 12.6459 30.3326 12.9054 28.9624 13.4743L21.5996 0.54072L12.2339 15.6109ZM11.8794 17.0882C10.3678 17.1742 8.83381 17.5768 7.39281 18.3241L6.29634 18.8928C1.37054 21.4475 -0.603227 27.0638 1.88779 31.4372C3.49686 34.2623 6.57527 35.8777 9.88101 35.9789L15.3409 45.4927C16.1696 46.9367 18.1594 47.4177 19.7853 46.5669C21.4112 45.7162 22.0574 43.8559 21.2288 42.4119L16.4755 34.1294C17.876 33.3921 19.0349 32.4062 19.9169 31.2723L11.8794 17.0882ZM35.9407 31.1625L37.5236 31.2141L21.3676 2.70308L20.5015 4.05178L35.9407 31.1625ZM35.1622 31.1372L21.3366 30.6865L12.9761 15.9323L12.837 15.9872L20.1363 4.62043L35.1622 31.1372ZM34.6146 17.8199C34.0654 18.7237 33.1469 19.5728 32.0293 20.2177L28.785 14.5199C29.9724 13.9765 31.2312 13.708 32.332 13.7689C33.5494 13.8362 34.4737 14.3008 34.9018 15.0605C35.3299 15.8202 35.2266 16.8128 34.6146 17.8199Z" fill="#4D4D4D"/>
<path d="M38.795 12.9944C38.5071 12.507 38.7174 11.873 39.2646 11.5783L45.6655 8.13125C46.2127 7.83655 46.8897 7.99275 47.1775 8.48012C47.4654 8.9675 47.2552 9.6015 46.7079 9.89621L40.3071 13.3433C39.7599 13.638 39.0829 13.4818 38.795 12.9944Z" fill="#4D4D4D"/>
<path d="M41.6483 18.1278C40.9786 18.0977 40.4134 18.5264 40.3858 19.0853C40.3583 19.6442 40.8788 20.1217 41.5485 20.1519L48.7365 20.4751C49.4061 20.5052 49.9714 20.0766 49.999 19.5176C50.0265 18.9587 49.506 18.4812 48.8363 18.4511L41.6483 18.1278Z" fill="#4D4D4D"/>
<path d="M13.7147 39.1657C13.32 38.3454 13.665 37.3605 14.4853 36.9658L17.0854 35.7147C17.9057 35.32 18.8906 35.6651 19.2853 36.4854C19.68 37.3057 19.335 38.2907 18.5147 38.6854L15.9146 39.9364C15.0943 40.3311 14.1093 39.986 13.7147 39.1657Z" fill="#4D4D4D"/>
</svg>
