<svg width="57" height="43" viewBox="0 0 57 43" fill="none" xmlns="http://www.w3.org/2000/svg">
<path fill-rule="evenodd" clip-rule="evenodd" d="M2.85476 4.02463C1.27812 4.02463 0 5.44717 0 7.20197V31.5616C0 33.3164 1.27812 34.7389 2.85476 34.7389H54.1452C55.7219 34.7389 57 33.3164 57 31.5616V7.20197C57 5.44717 55.7219 4.02463 54.1452 4.02463H2.85476ZM4.66277 6.24877C3.08613 6.24877 1.80801 7.67131 1.80801 9.42611V29.2315C1.80801 30.9863 3.08613 32.4089 4.66277 32.4089H52.2421C53.8187 32.4089 55.0968 30.9863 55.0968 29.2315V9.42611C55.0968 7.67131 53.8187 6.24877 52.2421 6.24877H4.66277Z" fill="#4D4D4D"/>
<path d="M0 36.9631H57V38.8695H0V36.9631Z" fill="#4D4D4D"/>
<path d="M24.0751 34.7389H32.8297V43H24.0751V34.7389Z" fill="#4D4D4D"/>
<path d="M13.1319 2.01232C13.1319 1.47862 12.5905 0.966776 11.6268 0.589394C10.6632 0.212011 9.35615 4.02932e-08 7.99332 0C6.63049 -4.02931e-08 5.32348 0.212011 4.35981 0.589393C3.39614 0.966776 2.85476 1.47862 2.85476 2.01231L13.1319 2.01232Z" fill="#4D4D4D"/>
<path d="M33.591 2.01232C33.591 1.47862 33.0496 0.966776 32.0859 0.589394C31.1223 0.212011 29.8153 4.02932e-08 28.4524 0C27.0896 -4.02931e-08 25.7826 0.212011 24.8189 0.589393C23.8552 0.966776 23.3139 1.47862 23.3139 2.01231L33.591 2.01232Z" fill="#4D4D4D"/>
<path d="M54.0501 2.01232C54.0501 1.47862 53.5087 0.966776 52.545 0.589394C51.5814 0.212011 50.2744 4.02932e-08 48.9115 0C47.5487 -4.02931e-08 46.2417 0.212011 45.278 0.589393C44.3143 0.966776 43.773 1.47862 43.773 2.01231L54.0501 2.01232Z" fill="#4D4D4D"/>
</svg>
